<?xml version="1.0" encoding="iso-8859-1"?>
<!-- Generator: Adobe Illustrator 19.0.0, SVG Export Plug-In . SVG Version: 6.00 Build 0)  -->
<svg version="1.1" id="Layer_1" xmlns="http://www.w3.org/2000/svg" xmlns:xlink="http://www.w3.org/1999/xlink" x="0px" y="0px"
	 viewBox="0 0 330 330" style="enable-background:new 0 0 330 330;" xml:space="preserve">
<g id="XMLID_467_">
	<path id="XMLID_468_" d="M315,10.013h-90.012c-8.284,0-15,6.716-15,15c0,24.799-20.183,44.974-44.99,44.974
		c-24.808,0-44.99-20.175-44.99-44.974c0-8.284-6.716-15-15-15H15c-8.284,0-15,6.716-15,15v109.974c0,8.284,6.716,15,15,15h45v155
		c0,8.284,6.716,15,15,15h180c8.284,0,15-6.716,15-15v-155h45c8.284,0,15-6.716,15-15V25.013C330,16.729,323.284,10.013,315,10.013z
		"/>
</g>
<g>
</g>
<g>
</g>
<g>
</g>
<g>
</g>
<g>
</g>
<g>
</g>
<g>
</g>
<g>
</g>
<g>
</g>
<g>
</g>
<g>
</g>
<g>
</g>
<g>
</g>
<g>
</g>
<g>
</g>
</svg>
