<?xml version="1.0" encoding="iso-8859-1"?>
<!-- Generator: Adobe Illustrator 17.1.0, SVG Export Plug-In . SVG Version: 6.00 Build 0)  -->
<!DOCTYPE svg PUBLIC "-//W3C//DTD SVG 1.1//EN" "http://www.w3.org/Graphics/SVG/1.1/DTD/svg11.dtd">
<svg version="1.1" id="Capa_1" xmlns="http://www.w3.org/2000/svg" xmlns:xlink="http://www.w3.org/1999/xlink" x="0px" y="0px"
	 viewBox="0 0 430.891 430.891" style="enable-background:new 0 0 430.891 430.891;" xml:space="preserve">
<g>
	<path d="M196.005,374.908H11.224c-4.553,0-8.637,3.684-9.104,8.211l-2.074,20.075c-0.238,2.301,0.456,4.483,1.956,6.146
		s3.6,2.579,5.913,2.579h186.576c4.623,0,8.562-3.757,8.78-8.375l0.946-20.025c0.108-2.283-0.69-4.441-2.25-6.076
		C200.409,375.809,198.291,374.908,196.005,374.908z"/>
	<path d="M430.845,403.195l-2.074-20.076c-0.467-4.527-4.551-8.211-9.104-8.211H234.728c-2.288,0-4.405,0.901-5.959,2.539
		s-2.345,3.797-2.226,6.083l1.047,20.028c0.241,4.61,4.192,8.361,8.81,8.361h186.576c2.313,0,4.413-0.916,5.913-2.579
		S431.083,405.495,430.845,403.195z"/>
	<path d="M240.999,60.328V45.273c0-0.813-0.687-1.5-1.5-1.5h-48.107c-0.813,0-1.5,0.687-1.5,1.5v15.055c0,0.813,0.687,1.5,1.5,1.5
		h48.107C240.313,61.828,240.999,61.142,240.999,60.328z"/>
	<path d="M233.604,358.392h183.841c2.313,0,4.412-0.916,5.912-2.578c1.5-1.663,2.195-3.846,1.957-6.147L402.709,130.93
		c-0.367-3.565-1.79-8.928-3.238-12.21L383.766,83.14c3.223-2.04,5.375-5.627,5.375-9.716V30.471c0-6.341-5.159-11.5-11.5-11.5
		H53.25c-6.341,0-11.5,5.159-11.5,11.5v42.954c0,4.193,2.263,7.858,5.625,9.868l-15.912,35.428
		c-1.472,3.273-2.913,8.637-3.281,12.209L5.577,349.666c-0.238,2.302,0.457,4.484,1.957,6.147c1.5,1.662,3.6,2.578,5.912,2.578
		h183.575c4.623,0,8.563-3.757,8.781-8.375l5.058-106.983c0.093-1.972,1.841-3.657,3.816-3.681l0.775-0.009
		c1.93,0,3.646,1.626,3.745,3.553l5.597,107.133C225.035,354.641,228.986,358.392,233.604,358.392z M191.392,76.828
		c-9.098,0-16.5-7.402-16.5-16.5V45.273c0-9.098,7.402-16.5,16.5-16.5h48.107c9.098,0,16.5,7.402,16.5,16.5v15.055
		c0,9.098-7.402,16.5-16.5,16.5H191.392z"/>
</g>
<g>
</g>
<g>
</g>
<g>
</g>
<g>
</g>
<g>
</g>
<g>
</g>
<g>
</g>
<g>
</g>
<g>
</g>
<g>
</g>
<g>
</g>
<g>
</g>
<g>
</g>
<g>
</g>
<g>
</g>
</svg>
